<svg width="32" height="32" viewBox="0 0 32 32" fill="none" xmlns="http://www.w3.org/2000/svg">
<path d="M5.92475 16.0001L5.94088 21.9144L10.9663 24.8716V28.3341L2.99984 23.6618V14.2706L5.92475 16.0001ZM5.92475 10.0857V13.5322L2.99805 11.8009V8.35446L5.92475 6.62317L8.86578 8.35446L5.92475 10.0857ZM13.065 8.35446L15.9917 6.62317L18.9327 8.35446L15.9917 10.0857L13.065 8.35446Z" fill="white"/>
<path d="M8.03809 20.6885V17.226L10.9648 18.9572V22.4037L8.03809 20.6885ZM13.0635 26.1118L15.9902 27.8431L18.9312 26.1118V29.5582L15.9902 31.2895L13.0635 29.5582V26.1118ZM23.1286 8.35446L26.0553 6.62317L28.9963 8.35446V11.8009L26.0553 13.5322V10.0857L23.1286 8.35446ZM26.0553 21.9144L26.0714 16.0001L28.9981 14.2688V23.66L21.0317 28.3324V24.8698L26.0553 21.9144Z" fill="white"/>
<path d="M23.956 20.6884L21.0293 22.4036V18.9571L23.956 17.2258V20.6884Z" fill="white"/>
<path d="M23.9566 11.3116L23.9727 14.7741L18.933 17.7313V23.66L16.0063 25.3751L13.0796 23.66V17.7313L8.03988 14.7741V11.3116L10.9791 9.58028L15.9884 12.5518L21.0281 9.58028L23.9691 11.3116H23.9566ZM8.03809 5.39902L15.9902 0.710571L23.9566 5.39902L21.0299 7.13031L15.9902 4.15881L10.9648 7.13031L8.03809 5.39902Z" fill="white"/>
</svg>
