<svg width="32" height="32" viewBox="0 0 32 32" fill="none" xmlns="http://www.w3.org/2000/svg">
<g clip-path="url(#clip0_4130_1381)">
<path d="M24.8985 4.84942C24.94 4.09529 25.039 3.59788 25.238 3.14362C25.3167 2.96381 25.3905 2.81665 25.4019 2.81665C25.4133 2.81665 25.3791 2.94937 25.3258 3.11155C25.1811 3.55241 25.1574 4.15541 25.2571 4.85696C25.3836 5.74711 25.4555 5.87555 26.3661 6.83711C26.7932 7.28812 27.2901 7.85692 27.4701 8.10113L27.7976 8.54522L27.4701 8.22787C27.0697 7.83982 26.1487 7.08294 25.9452 6.97475C25.8088 6.90219 25.7886 6.90344 25.7044 6.98997C25.6269 7.0697 25.6106 7.18951 25.5998 7.75591C25.583 8.63857 25.4666 9.2052 25.1855 9.77169C25.0335 10.0781 25.0095 10.0127 25.1471 9.66684C25.2498 9.40863 25.2603 9.29508 25.2595 8.44059C25.2579 6.72364 25.0607 6.31087 23.9036 5.60376C23.6106 5.42464 23.1276 5.1663 22.8305 5.02965C22.5333 4.893 22.2973 4.77399 22.3059 4.7651C22.3387 4.7314 23.467 5.07166 23.9211 5.25215C24.5967 5.52064 24.7082 5.55542 24.7902 5.52304C24.8452 5.50133 24.8718 5.33585 24.8985 4.84942Z" fill="#D7D3D0"/>
<path d="M10.6257 2.35163C10.2249 2.28752 10.208 2.28 10.3966 2.25011C10.758 2.1928 11.6114 2.27091 12.1994 2.41511C13.5722 2.75164 14.8215 3.61373 16.1549 5.1448L16.5092 5.55154L17.016 5.46752C19.151 5.1137 21.3229 5.39491 23.1395 6.26034C23.6393 6.49843 24.4273 6.97236 24.5257 7.09416C24.5571 7.13298 24.6147 7.38285 24.6536 7.64947C24.7886 8.57186 24.721 9.27881 24.4475 9.80689C24.2986 10.0943 24.2903 10.1854 24.3904 10.4313C24.4703 10.6275 24.693 10.7728 24.9136 10.7724C25.365 10.7718 25.8509 10.0192 26.0761 8.97208L26.1655 8.55616L26.3427 8.76313C27.3145 9.89854 28.0777 11.4469 28.2088 12.5491L28.243 12.8364L28.0796 12.5752C27.7985 12.1257 27.5161 11.8196 27.1544 11.5729C26.5024 11.128 25.813 10.9765 23.9872 10.8773C22.3383 10.7877 21.405 10.6424 20.4796 10.3313C18.9052 9.80187 18.1114 9.09684 16.2412 6.5664C15.4105 5.44245 14.897 4.82059 14.3863 4.3198C13.2257 3.1819 12.0854 2.58513 10.6257 2.35163Z" fill="#D7D3D0"/>
<path d="M11.4043 7.79455C10.5908 6.63947 10.0874 4.86853 10.1964 3.54468L10.2301 3.13501L10.4153 3.16986C10.763 3.23527 11.3626 3.46542 11.6434 3.64129C12.4139 4.12385 12.7475 4.75918 13.0868 6.39062C13.1862 6.86847 13.3166 7.40922 13.3766 7.5923C13.4733 7.88701 13.8383 8.5753 14.1351 9.02235C14.3489 9.34426 14.2069 9.49682 13.7343 9.45287C13.0126 9.3857 12.035 8.68989 11.4043 7.79455Z" fill="#D7D3D0"/>
<path d="M23.9106 16.3908C20.1086 14.8121 18.7695 13.4419 18.7695 11.1298C18.7695 10.7896 18.7809 10.5112 18.7948 10.5112C18.8086 10.5112 18.9557 10.6235 19.1216 10.7608C19.8926 11.3985 20.7559 11.6708 23.1459 12.0304C24.5524 12.242 25.3438 12.4129 26.0739 12.6626C28.3944 13.4563 29.8301 15.0668 30.1725 17.2606C30.272 17.898 30.2137 19.0933 30.0524 19.7234C29.925 20.2209 29.5364 21.1179 29.4334 21.1523C29.4048 21.1618 29.3767 21.0489 29.3694 20.8952C29.3303 20.0715 28.9267 19.2696 28.2488 18.6688C27.478 17.9858 26.4425 17.442 23.9106 16.3908Z" fill="#D7D3D0"/>
<path d="M21.2415 17.0466C21.1939 16.7543 21.1113 16.381 21.058 16.217L20.9609 15.9189L21.1411 16.1275C21.3905 16.4162 21.5875 16.7855 21.7545 17.2774C21.882 17.6528 21.8963 17.7645 21.8954 18.3746C21.8944 18.9736 21.8785 19.0991 21.7608 19.4371C21.5752 19.97 21.3448 20.3478 20.9584 20.7534C20.2639 21.4823 19.371 21.8859 18.0825 22.0533C17.8585 22.0823 17.2057 22.1314 16.6318 22.1621C15.1855 22.2397 14.2336 22.4 13.3783 22.7097C13.2552 22.7543 13.1454 22.7813 13.1343 22.7698C13.0997 22.7343 13.682 22.3763 14.163 22.1373C14.8413 21.8004 15.5165 21.6166 17.0292 21.3567C17.7765 21.2284 18.5482 21.0727 18.7442 21.0107C20.5948 20.4256 21.546 18.9157 21.2415 17.0466Z" fill="#D7D3D0"/>
<path d="M22.9849 20.2385C22.4798 19.1187 22.3638 18.0375 22.6406 17.0292C22.6702 16.9214 22.7178 16.8333 22.7464 16.8333C22.775 16.8333 22.8943 16.8997 23.0113 16.9809C23.2441 17.1425 23.7109 17.4147 24.9547 18.114C26.5068 18.9866 27.3917 19.6624 27.9934 20.4344C28.5204 21.1105 28.8466 21.8805 29.0036 22.8195C29.0925 23.3514 29.0404 24.6312 28.908 25.1667C28.4907 26.8555 27.5209 28.182 26.1376 28.9561C25.9349 29.0695 25.7529 29.1626 25.7332 29.163C25.7135 29.1634 25.7874 28.9698 25.8974 28.7327C26.3627 27.7295 26.4157 26.7538 26.0639 25.6676C25.8484 25.0026 25.4093 24.1912 24.5224 22.8197C23.4914 21.2252 23.2386 20.8009 22.9849 20.2385Z" fill="#D7D3D0"/>
<path d="M8.70422 26.2806C10.1151 25.0522 11.8706 24.1794 13.4696 23.9115C14.1588 23.7961 15.3068 23.8419 15.9449 24.0103C16.9679 24.2803 17.8829 24.885 18.3588 25.6053C18.8239 26.3095 19.0234 26.923 19.2311 28.2882C19.3131 28.8266 19.4022 29.3674 19.4292 29.4899C19.5852 30.1973 19.8888 30.7629 20.265 31.0469C20.8626 31.4979 21.8915 31.5259 22.9036 31.1188C23.0754 31.0496 23.2245 31.0019 23.235 31.0127C23.2717 31.0503 22.7621 31.4021 22.4025 31.5873C21.9187 31.8366 21.534 31.9328 21.0228 31.9328C20.0958 31.9328 19.3261 31.4466 18.6839 30.455C18.5576 30.2598 18.2735 29.6752 18.0527 29.156C17.3746 27.5612 17.0398 27.0753 16.2525 26.5436C15.5674 26.0809 14.6838 25.998 14.019 26.3342C13.1459 26.7757 12.9023 27.9264 13.5277 28.6556C13.7762 28.9454 14.2397 29.1954 14.6187 29.244C15.3278 29.3349 15.9371 28.7787 15.9371 28.0404C15.9371 27.5611 15.7585 27.2875 15.3087 27.0782C14.6944 26.7924 14.0341 27.1265 14.0373 27.7216C14.0387 27.9754 14.1458 28.1347 14.3925 28.2498C14.5507 28.3236 14.5544 28.3295 14.4254 28.3019C13.8617 28.1813 13.7297 27.4806 14.1829 27.0155C14.7269 26.457 15.852 26.7034 16.2383 27.4657C16.4007 27.7859 16.4195 28.4235 16.278 28.8086C15.9613 29.6704 15.0378 30.1236 14.1011 29.877C13.4633 29.7091 13.2036 29.5272 12.4346 28.7104C11.0984 27.291 10.5797 27.016 8.65332 26.7058L8.28418 26.6464L8.70422 26.2806Z" fill="#D7D3D0"/>
<path fill-rule="evenodd" clip-rule="evenodd" d="M2.43452 0.875882C6.89682 6.46106 9.97027 8.76542 10.3118 9.25227C10.5938 9.65426 10.4877 10.0156 10.0045 10.2989C9.73589 10.4563 9.18357 10.6159 8.90701 10.6159C8.59422 10.6159 8.48683 10.4915 8.48683 10.4915C8.30547 10.3141 8.20333 10.3451 7.27199 8.64029C5.979 6.57128 4.89694 4.85494 4.86742 4.82621C4.79916 4.75975 4.80033 4.76199 7.14016 9.07937C7.51821 9.9792 7.21535 10.3095 7.21535 10.4377C7.21535 10.6984 7.14638 10.8355 6.83451 11.1942C6.31461 11.7924 6.0822 12.4644 5.91442 13.8553C5.72634 15.4145 5.19748 16.5158 3.73183 18.4008C2.87389 19.5043 2.7335 19.7065 2.51703 20.1512C2.24435 20.7113 2.16937 21.025 2.13898 21.7322C2.10686 22.4799 2.16942 22.9629 2.39094 23.6779C2.58487 24.3038 2.78731 24.717 3.30482 25.5437C3.75142 26.257 4.00858 26.7871 4.00858 26.9944C4.00858 27.1594 4.03912 27.1597 4.73118 26.9985C6.38735 26.6129 7.73215 25.9345 8.4885 25.1033C8.95658 24.5887 9.06645 24.3046 9.07007 23.5995C9.07242 23.1383 9.05663 23.0418 8.93574 22.7764C8.73898 22.3446 8.38074 21.9855 7.59116 21.4289C6.55659 20.6996 6.11472 20.1124 5.99266 19.3049C5.89254 18.6424 6.00869 18.1749 6.58103 16.9379C7.17341 15.6574 7.32021 15.1118 7.41952 13.8212C7.48365 12.9874 7.57248 12.6586 7.80479 12.3946C8.04708 12.1194 8.26519 12.0262 8.86481 11.9417C9.84234 11.8039 10.4648 11.5431 10.9765 11.0569C11.4204 10.6351 11.6061 10.2286 11.6346 9.61681L11.6562 9.1531L11.4082 8.85485C10.5099 7.77482 1.83296 0.0268555 1.77769 0.0268555C1.76588 0.0268555 2.06146 0.408943 2.43452 0.875882ZM4.51281 22.5783C4.7159 22.2073 4.608 21.7305 4.26828 21.4976C3.9473 21.2774 3.44867 21.3811 3.44867 21.6679C3.44867 21.7554 3.4956 21.8191 3.60137 21.8753C3.77948 21.9698 3.7924 22.0761 3.65227 22.2933C3.51036 22.5132 3.52181 22.7066 3.68459 22.8381C3.94694 23.0499 4.31831 22.9335 4.51281 22.5783Z" fill="#D7D3D0"/>
<path fill-rule="evenodd" clip-rule="evenodd" d="M12.2728 12.1849C11.814 12.3302 11.3678 12.8318 11.2297 13.3577C11.1455 13.6785 11.1933 14.2414 11.3195 14.4152C11.5233 14.696 11.7205 14.7699 12.2543 14.766C13.2994 14.7585 14.2079 14.2963 14.3135 13.7184C14.4001 13.2448 14.0011 12.5883 13.4515 12.3001C13.1679 12.1515 12.5647 12.0925 12.2728 12.1849ZM13.4946 13.1701C13.6557 12.9339 13.5853 12.6786 13.3111 12.506C12.7892 12.1773 11.9998 12.4493 11.9998 12.9579C11.9998 13.211 12.4114 13.4872 12.7888 13.4872C13.0399 13.4872 13.3836 13.3327 13.4946 13.1701Z" fill="#D7D3D0"/>
</g>
<defs>
<clipPath id="clip0_4130_1381">
<rect width="28.4444" height="32" fill="white" transform="translate(1.77734)"/>
</clipPath>
</defs>
</svg>
