<svg width="32" height="32" viewBox="0 0 32 32" fill="none" xmlns="http://www.w3.org/2000/svg">
<path fill-rule="evenodd" clip-rule="evenodd" d="M25.9401 13.239C26.4179 10.04 23.9823 8.32039 20.6519 7.17319L21.7322 2.83986L19.0937 2.1825L18.042 6.40164C17.3493 6.22885 16.6371 6.06582 15.9294 5.9043L16.9887 1.65736L14.3525 1L13.2714 5.33183C12.6974 5.20111 12.134 5.07189 11.587 4.93591L11.59 4.92239L7.95238 4.0141L7.25069 6.83137C7.25069 6.83137 9.20775 7.27988 9.16643 7.30767C10.2347 7.57437 10.4286 8.28132 10.3955 8.84177L9.16493 13.7784C9.23856 13.7972 9.33397 13.8242 9.43915 13.8663L9.16118 13.7972L7.4355 20.7126C7.30478 21.0372 6.97347 21.524 6.22671 21.3392C6.253 21.3775 4.30947 20.8606 4.30947 20.8606L3 23.8807L6.43331 24.7364C6.8207 24.8335 7.20339 24.9333 7.58188 25.0321L7.58259 25.0323C7.82777 25.0962 8.07119 25.1597 8.31299 25.2217L7.22139 29.6054L9.8561 30.2628L10.9379 25.9264C11.6569 26.1218 12.3556 26.3021 13.0392 26.4718L11.9619 30.7879L14.5996 31.4453L15.6912 27.0706C20.1891 27.9218 23.5721 27.5785 24.9942 23.5111C26.1414 20.2355 24.9379 18.3461 22.5714 17.1133C24.2948 16.7143 25.593 15.5807 25.9393 13.239H25.9401ZM19.9132 21.6899C19.1644 24.6963 14.4577 23.4523 12.3061 22.8837C12.1134 22.8328 11.9413 22.7873 11.7942 22.7507L13.2427 16.9442C13.4224 16.989 13.6419 17.0383 13.8906 17.0941C16.1166 17.5936 20.6783 18.6172 19.914 21.6899H19.9132ZM14.3381 14.3998C16.1334 14.8787 20.0467 15.9227 20.7284 13.1917C21.4253 10.3978 17.6201 9.5557 15.7616 9.14443C15.5527 9.0982 15.3684 9.05741 15.2178 9.0199L13.9046 14.2863C14.0288 14.3173 14.1747 14.3562 14.3381 14.3998Z" fill="#D7D3D0"/>
</svg>
