<svg width="34" height="34" viewBox="0 0 34 34" fill="none" xmlns="http://www.w3.org/2000/svg">
<g clip-path="url(#clip0_4195_1819)">
<path fill-rule="evenodd" clip-rule="evenodd" d="M16.9235 33.9329C11.8596 33.9291 7.78029 32.7323 4.93013 30.5826C2.04562 28.4071 0.515625 25.3197 0.515625 21.8263C0.515625 18.4603 2.04236 16.0331 3.77001 14.3924C5.12383 13.1067 6.61777 12.2834 7.65803 11.8096C7.42278 11.0985 7.12931 10.1677 6.86676 9.20614C6.51542 7.91961 6.17079 6.40994 6.17079 5.30383C6.17079 3.99457 6.46047 2.67951 7.24196 1.6578C8.06775 0.578342 9.31063 0 10.8059 0C11.9747 0 12.9668 0.426965 13.7437 1.16352C14.4862 1.86744 14.9804 2.80252 15.3216 3.77725C15.9211 5.48989 16.1544 7.64163 16.22 9.78909H17.6523C17.7179 7.64163 17.9513 5.48989 18.5509 3.77725C18.8921 2.80252 19.3863 1.86761 20.1288 1.16352C20.9055 0.427136 21.8977 0 23.0664 0C24.5617 0 25.8048 0.578342 26.6304 1.6578C27.4119 2.67951 27.7017 3.99457 27.7017 5.30383C27.7017 6.40994 27.3571 7.91961 27.0056 9.20614C26.743 10.1677 26.4496 11.0985 26.2143 11.8096C27.2546 12.2834 28.7487 13.1067 30.1025 14.3926C31.83 16.0331 33.3569 18.4603 33.3569 21.8263C33.3569 25.3197 31.8267 28.4071 28.9424 30.5826C26.0922 32.7323 22.0129 33.9291 16.949 33.9329H16.9235Z" fill="#79716B"/>
<path d="M10.8067 1.24512C8.61661 1.24512 7.60829 2.87097 7.60829 5.11924C7.60829 6.90637 8.77974 10.4854 9.26038 11.8787C9.36856 12.1923 9.19856 12.5355 8.88878 12.657C7.13349 13.3457 1.95312 15.8672 1.95312 21.6419C1.95312 27.7248 7.21763 32.3114 16.9253 32.3186H16.9485C26.6564 32.3114 31.9205 27.7248 31.9205 21.6419C31.9205 15.8672 26.7403 13.3457 24.985 12.657C24.6753 12.5357 24.5053 12.1923 24.6134 11.8787C25.0941 10.4856 26.2655 6.90637 26.2655 5.11924C26.2655 2.8708 25.2574 1.24512 23.0671 1.24512C19.9144 1.24512 19.1286 5.68852 19.0725 10.4576C19.0687 10.7759 18.8101 11.0342 18.49 11.0342H15.3836C15.0637 11.0342 14.805 10.7759 14.8013 10.4576C14.7454 5.68852 13.9594 1.24512 10.8067 1.24512Z" fill="white"/>
<path d="M16.9483 30.37C9.81554 30.37 1.96549 26.571 1.95312 21.6533V21.6762C1.95312 27.7641 7.2257 32.3531 16.9483 32.3531C26.671 32.3531 31.9435 27.7641 31.9435 21.6762V21.6533C31.9312 26.571 24.0811 30.37 16.9483 30.37Z" fill="#A9A29D"/>
<path d="M12.9839 20.1432C12.9839 21.8036 12.1952 22.6683 11.2224 22.6683C10.2496 22.6683 9.46094 21.8036 9.46094 20.1432C9.46094 18.4829 10.2496 17.6182 11.2224 17.6182C12.1952 17.6182 12.9839 18.4829 12.9839 20.1432ZM24.433 20.1432C24.433 21.8036 23.6444 22.6683 22.6717 22.6683C21.6987 22.6683 20.9102 21.8036 20.9102 20.1432C20.9102 18.4829 21.6987 17.6182 22.6717 17.6182C23.6444 17.6182 24.433 18.4829 24.433 20.1432Z" fill="#79716B"/>
</g>
<defs>
<clipPath id="clip0_4195_1819">
<rect width="34" height="34" fill="white"/>
</clipPath>
</defs>
</svg>
