<svg width="32" height="32" viewBox="0 0 32 32" fill="none" xmlns="http://www.w3.org/2000/svg">
<g clip-path="url(#clip0_4130_1377)">
<path d="M7.232 16L3.648 19.584L0 16L3.648 12.352L7.232 16ZM16 7.232L22.208 13.44L25.856 9.792L16 0L6.208 9.792L9.856 13.44L16 7.232ZM28.352 12.352L24.768 16L28.416 19.648L32 16L28.352 12.352ZM16 24.768L9.792 18.56L6.144 22.208L16 32L25.792 22.208L22.208 18.56L16 24.768ZM16 19.584L19.648 15.936L16 12.352L12.352 16L16 19.584Z" fill="#D7D3D0"/>
</g>
<defs>
<clipPath id="clip0_4130_1377">
<rect width="32" height="32" fill="white"/>
</clipPath>
</defs>
</svg>
