<svg width="32" height="32" viewBox="0 0 32 32" fill="none" xmlns="http://www.w3.org/2000/svg">
<g clip-path="url(#clip0_3956_24545)">
<path d="M5.19657 22.0641C5.39223 21.8692 5.65749 21.7598 5.93408 21.7598H31.4535C31.9184 21.7598 32.151 22.32 31.8222 22.6475L26.7796 27.6689C26.584 27.8638 26.3188 27.9731 26.0422 27.9731H0.522745C0.057861 27.9731 -0.174859 27.413 0.153995 27.0855L5.19657 22.0641Z" fill="white"/>
<path d="M5.19657 3.30427C5.39223 3.10944 5.65749 3 5.93408 3H31.4535C31.9184 3 32.151 3.56024 31.8222 3.88771L26.7796 8.90912C26.584 9.10394 26.3188 9.21339 26.0422 9.21339H0.522745C0.057861 9.21339 -0.174859 8.65315 0.153995 8.32568L5.19657 3.30427Z" fill="white"/>
<path d="M26.7796 12.6246C26.584 12.4297 26.3188 12.3203 26.0422 12.3203H0.522745C0.0578609 12.3203 -0.174859 12.8805 0.153995 13.208L5.19657 18.2294C5.39222 18.4242 5.65749 18.5337 5.93408 18.5337H31.4535C31.9184 18.5337 32.151 17.9734 31.8222 17.646L26.7796 12.6246Z" fill="white"/>
</g>
<defs>
<clipPath id="clip0_3956_24545">
<rect width="32" height="25" fill="white" transform="translate(0 3)"/>
</clipPath>
</defs>
</svg>
