<svg width="64" height="64" viewBox="0 0 64 64" fill="none" xmlns="http://www.w3.org/2000/svg">
<g filter="url(#filter0_i_6732_39919)">
<path d="M13.4144 60.4446V51.3423C13.4144 49.1173 13.7212 47.2211 14.3348 45.6534C14.9996 44.0858 16.1246 42.6699 17.7097 41.4057C19.2949 40.091 21.4426 38.8268 24.1528 37.6131L34.661 32.8345C37.2177 31.6714 39.2376 30.1797 40.7205 28.3592C42.2034 26.4882 42.9449 24.0862 42.9449 21.1533C42.9449 17.6135 41.9477 14.8576 39.9535 12.8854C37.9592 10.9133 35.1468 9.92722 31.5162 9.92722C27.9367 9.92722 25.1243 10.9133 23.0789 12.8854C21.0335 14.8576 20.0108 17.6135 20.0108 21.1533H12.8008C12.8008 17.9675 13.4655 15.0346 14.795 12.3545C16.1757 9.67438 18.2467 7.55053 21.0079 5.98292C23.7692 4.36475 27.272 3.55566 31.5162 3.55566C35.7604 3.55566 39.2376 4.36475 41.9477 5.98292C44.709 7.55053 46.7544 9.62381 48.0839 12.2028C49.4646 14.7817 50.1549 17.5883 50.1549 20.6223V21.6843C50.1549 25.6791 48.9788 29.0419 46.6266 31.7726C44.3255 34.5032 41.2063 36.7535 37.2689 38.5234L26.7606 43.302C24.4084 44.364 22.8232 45.4259 22.0051 46.4878C21.1869 47.5497 20.7778 48.9656 20.7778 50.7355V57.7139L18.7836 54.2247H50.8452V60.4446H13.4144Z" fill="#1C1917"/>
</g>
<path d="M31.5166 3.05566C35.8155 3.05572 39.3851 3.87435 42.1934 5.54785H42.1943C45.0293 7.15727 47.1462 9.29671 48.5244 11.9668L48.7832 12.4668C50.032 14.9825 50.6552 17.7034 50.6553 20.6221V21.6846C50.6552 25.785 49.4446 29.2673 47.0059 32.0986C44.6477 34.8957 41.4636 37.186 37.4736 38.9795L26.9678 43.7568L26.9668 43.7578C24.6323 44.8117 23.1416 45.8323 22.4014 46.793C21.6694 47.743 21.2783 49.0406 21.2783 50.7354V53.7246H51.3457V60.9443H12.9141V51.3428C12.9141 49.0744 13.2268 47.1118 13.8691 45.4707L13.874 45.458C14.5759 43.8029 15.7566 42.3253 17.3906 41.0205L17.7031 40.7676C19.2977 39.5073 21.3828 38.3059 23.9453 37.1582L34.4541 32.3789C36.798 31.3126 38.6612 29.9734 40.0596 28.3682L40.333 28.043C41.7281 26.2798 42.4453 23.997 42.4453 21.1533C42.4453 17.7102 41.4775 15.0963 39.6016 13.2412C37.7262 11.3867 35.0557 10.4268 31.5166 10.4268C28.0314 10.4268 25.3554 11.3846 23.4258 13.2451C21.501 15.1009 20.5107 17.7138 20.5107 21.1533V21.6533H12.3008V21.1533C12.3008 17.8956 12.9807 14.8854 14.3467 12.1318L14.3506 12.125C15.7781 9.35408 17.9199 7.16064 20.7607 5.54785C23.6188 3.87467 27.2145 3.05566 31.5166 3.05566Z" stroke="url(#paint0_linear_6732_39919)"/>
<rect width="64" height="64" fill="url(#paint1_linear_6732_39919)"/>
<defs>
<filter id="filter0_i_6732_39919" x="11.8008" y="2.55566" width="40.0449" height="58.9229" filterUnits="userSpaceOnUse" color-interpolation-filters="sRGB">
<feFlood flood-opacity="0" result="BackgroundImageFix"/>
<feBlend mode="normal" in="SourceGraphic" in2="BackgroundImageFix" result="shape"/>
<feColorMatrix in="SourceAlpha" type="matrix" values="0 0 0 0 0 0 0 0 0 0 0 0 0 0 0 0 0 0 127 0" result="hardAlpha"/>
<feMorphology radius="4" operator="erode" in="SourceAlpha" result="effect1_innerShadow_6732_39919"/>
<feOffset/>
<feGaussianBlur stdDeviation="8"/>
<feComposite in2="hardAlpha" operator="arithmetic" k2="-1" k3="1"/>
<feColorMatrix type="matrix" values="0 0 0 0 0.917647 0 0 0 0 0.67451 0 0 0 0 0.0313726 0 0 0 0.08 0"/>
<feBlend mode="normal" in2="shape" result="effect1_innerShadow_6732_39919"/>
</filter>
<linearGradient id="paint0_linear_6732_39919" x1="31.823" y1="3.55566" x2="31.823" y2="60.4446" gradientUnits="userSpaceOnUse">
<stop stop-color="#FAC515" stop-opacity="0.32"/>
<stop offset="1" stop-color="#FAC515" stop-opacity="0"/>
</linearGradient>
<linearGradient id="paint1_linear_6732_39919" x1="32" y1="0" x2="32" y2="64" gradientUnits="userSpaceOnUse">
<stop offset="0.495" stop-color="#1C1917" stop-opacity="0"/>
<stop offset="0.905" stop-color="#1C1917"/>
</linearGradient>
</defs>
</svg>
