<svg width="64" height="64" viewBox="0 0 64 64" fill="none" xmlns="http://www.w3.org/2000/svg">
<g filter="url(#filter0_i_6732_39928)">
<path d="M32.0009 60.4446C27.8086 60.4446 24.2553 59.6333 21.3412 58.0108C18.427 56.3883 16.203 54.2334 14.6693 51.5462C13.1866 48.8589 12.4453 45.9435 12.4453 42.7999H19.654C19.654 46.2477 20.7532 48.9857 22.9516 51.0138C25.2012 53.0419 28.2176 54.056 32.0009 54.056C34.506 54.056 36.6789 53.5996 38.5194 52.687C40.3599 51.7743 41.7914 50.4814 42.8139 48.8082C43.8365 47.0843 44.3477 45.0815 44.3477 42.7999C44.3477 39.3521 43.2229 36.5634 40.9734 34.4339C38.775 32.3043 35.8097 31.2396 32.0776 31.2396C30.4927 31.2396 29.1123 31.4424 27.9364 31.848C26.8116 32.2029 25.8147 32.6593 24.9455 33.217L21.2645 26.6763L42.6606 11.1611L41.8937 9.79215H14.6693V3.55566H48.7956V13.6709L31.0806 26.4481L25.7124 26.6763C26.5816 26.3721 27.5274 26.1185 28.5499 25.9157C29.6235 25.7129 30.8761 25.6115 32.3076 25.6115C36.3977 25.6115 39.8742 26.3721 42.7373 27.8932C45.6003 29.4143 47.7731 31.4424 49.2558 33.9775C50.7895 36.5127 51.5564 39.276 51.5564 42.2675V43.3323C51.5564 46.273 50.7895 49.0617 49.2558 51.6983C47.7731 54.2841 45.5747 56.3883 42.6606 58.0108C39.7975 59.6333 36.2443 60.4446 32.0009 60.4446Z" fill="#1C1917"/>
</g>
<path d="M49.2959 3.05566V13.9268L49.0879 14.0762L33.7422 25.1436C37.2845 25.3035 40.3658 26.0668 42.9717 27.4512C45.9055 29.0099 48.1494 31.0983 49.6836 33.7188L49.9707 34.2119C51.3607 36.6905 52.0566 39.3784 52.0566 42.2676V43.332C52.0566 46.3635 51.2639 49.2372 49.6885 51.9463L49.6895 51.9473C48.1569 54.6201 45.8886 56.7842 42.9062 58.4453C39.9494 60.1209 36.3061 60.9443 32.001 60.9443C27.745 60.9443 24.103 60.1205 21.0977 58.4473C18.1104 56.784 15.8178 54.5665 14.2354 51.7939L14.2314 51.7881C12.707 49.025 11.9453 46.0257 11.9453 42.7998V42.2998H20.1543V42.7998C20.1543 46.1314 21.2112 48.7278 23.291 50.6465C25.4269 52.5699 28.3119 53.5557 32.001 53.5557C34.4455 53.5557 36.539 53.1108 38.2969 52.2393C40.0552 51.3674 41.4131 50.139 42.3838 48.5527C43.3544 46.9163 43.8477 45.0042 43.8477 42.7998C43.8476 39.4723 42.7678 36.8208 40.6299 34.7969L40.626 34.793C38.5405 32.7728 35.7097 31.7393 32.0771 31.7393C30.5336 31.7393 29.2108 31.9371 28.0996 32.3203L28.0869 32.3252C26.9986 32.6686 26.0429 33.107 25.2158 33.6377L24.7695 33.9238L24.5098 33.4619L20.8291 26.9219L20.6104 26.5332L20.9707 26.2715L42.0068 11.0176L41.6006 10.292H14.1689V3.05566H49.2959Z" stroke="url(#paint0_linear_6732_39928)"/>
<rect width="64" height="64" fill="url(#paint1_linear_6732_39928)"/>
<defs>
<filter id="filter0_i_6732_39928" x="11.4453" y="2.55566" width="41.1113" height="58.8887" filterUnits="userSpaceOnUse" color-interpolation-filters="sRGB">
<feFlood flood-opacity="0" result="BackgroundImageFix"/>
<feBlend mode="normal" in="SourceGraphic" in2="BackgroundImageFix" result="shape"/>
<feColorMatrix in="SourceAlpha" type="matrix" values="0 0 0 0 0 0 0 0 0 0 0 0 0 0 0 0 0 0 127 0" result="hardAlpha"/>
<feMorphology radius="4" operator="erode" in="SourceAlpha" result="effect1_innerShadow_6732_39928"/>
<feOffset/>
<feGaussianBlur stdDeviation="8"/>
<feComposite in2="hardAlpha" operator="arithmetic" k2="-1" k3="1"/>
<feColorMatrix type="matrix" values="0 0 0 0 0.917647 0 0 0 0 0.67451 0 0 0 0 0.0313726 0 0 0 0.08 0"/>
<feBlend mode="normal" in2="shape" result="effect1_innerShadow_6732_39928"/>
</filter>
<linearGradient id="paint0_linear_6732_39928" x1="32.0009" y1="3.55566" x2="32.0009" y2="60.4446" gradientUnits="userSpaceOnUse">
<stop stop-color="#FAC515" stop-opacity="0.32"/>
<stop offset="1" stop-color="#FAC515" stop-opacity="0"/>
</linearGradient>
<linearGradient id="paint1_linear_6732_39928" x1="32" y1="0" x2="32" y2="64" gradientUnits="userSpaceOnUse">
<stop offset="0.495" stop-color="#1C1917" stop-opacity="0"/>
<stop offset="0.905" stop-color="#1C1917"/>
</linearGradient>
</defs>
</svg>
